<svg width="191" height="72" viewBox="0 0 191 72" fill="none" xmlns="http://www.w3.org/2000/svg">
<path d="M0 13V60H37V29.9709L31.712 35.1957V54.7791H5.28798V18.2248H14.536L19.82 13H0ZM21.144 13V28.6667H37V23.4458H31.712V18.2248H26.428V13" fill="#171717"/>
<path d="M90.84 19.496V53H84.12V31.208L75.144 53H70.056L61.032 31.208V53H54.312V19.496H61.944L72.6 44.408L83.256 19.496H90.84ZM95.7559 39.608C95.7559 36.92 96.2839 34.536 97.3399 32.456C98.4279 30.376 99.8839 28.776 101.708 27.656C103.564 26.536 105.628 25.976 107.9 25.976C109.884 25.976 111.612 26.376 113.084 27.176C114.588 27.976 115.788 28.984 116.684 30.2V26.408H123.452V53H116.684V49.112C115.82 50.36 114.62 51.4 113.084 52.232C111.58 53.032 109.836 53.432 107.852 53.432C105.612 53.432 103.564 52.856 101.708 51.704C99.8839 50.552 98.4279 48.936 97.3399 46.856C96.2839 44.744 95.7559 42.328 95.7559 39.608ZM116.684 39.704C116.684 38.072 116.364 36.68 115.724 35.528C115.084 34.344 114.22 33.448 113.132 32.84C112.044 32.2 110.876 31.88 109.628 31.88C108.38 31.88 107.228 32.184 106.172 32.792C105.116 33.4 104.252 34.296 103.58 35.48C102.94 36.632 102.62 38.008 102.62 39.608C102.62 41.208 102.94 42.616 103.58 43.832C104.252 45.016 105.116 45.928 106.172 46.568C107.26 47.208 108.412 47.528 109.628 47.528C110.876 47.528 112.044 47.224 113.132 46.616C114.22 45.976 115.084 45.08 115.724 43.928C116.364 42.744 116.684 41.336 116.684 39.704ZM137.839 31.928V44.792C137.839 45.688 138.047 46.344 138.463 46.76C138.911 47.144 139.647 47.336 140.671 47.336H143.791V53H139.567C133.903 53 131.071 50.248 131.071 44.744V31.928H127.903V26.408H131.071V19.832H137.839V26.408H143.791V31.928H137.839ZM160.817 31.928H156.161V53H149.345V31.928H146.321V26.408H149.345V25.064C149.345 21.8 150.273 19.4 152.129 17.864C153.985 16.328 156.785 15.608 160.529 15.704V21.368C158.897 21.336 157.761 21.608 157.121 22.184C156.481 22.76 156.161 23.8 156.161 25.304V26.408H160.817V31.928ZM190.611 26.408L174.147 65.576H166.995L172.755 52.328L162.099 26.408H169.635L176.499 44.984L183.459 26.408H190.611Z" fill="#171717"/>
</svg>
